<svg xmlns="http://www.w3.org/2000/svg" width="16" height="16" viewBox="0 0 16 16">
  <defs>
    <linearGradient id="gradient" x1="0%" y1="0%" x2="100%" y2="100%">
      <stop offset="0%" stop-color="#FF5A45" />
      <stop offset="100%" stop-color="#FF8A45" />
    </linearGradient>
    <filter id="shadow" x="-20%" y="-20%" width="140%" height="140%">
      <feDropShadow dx="0.5" dy="0.5" stdDeviation="0.5" flood-color="rgba(0,0,0,0.3)"/>
    </filter>
    <style>
      @keyframes float {
        0% { transform: translateY(0px); }
        50% { transform: translateY(-1px); }
        100% { transform: translateY(0px); }
      }
      @keyframes pulse {
        0% { transform: scale(1); opacity: 0.6; }
        50% { transform: scale(1.2); opacity: 0.8; }
        100% { transform: scale(1); opacity: 0.6; }
      }
      .key-icon { animation: float 2s ease-in-out infinite; }
      .sparkle { animation: pulse 1.5s ease-in-out infinite; }
    </style>
  </defs>
  <rect width="16" height="16" fill="#FFFFFF" rx="5" ry="5" filter="url(#shadow)" />
  <g class="key-icon" transform="translate(3, 3)">
    <path d="M8,2c0,0.83-0.67,1.5-1.5,1.5c-0.3,0-0.57-0.07-0.8-0.23L2.75,6.33V8H1.25V6.5h-1.5V5h1.57l2.97-2.97
      C4.07,1.87,4,1.6,4,1.3c0-0.83,0.67-1.5,1.5-1.5S7,0.47,7,1.3c0,0.3-0.07,0.57-0.23,0.8l0.97,0.97c0.23-0.23,0.5-0.3,0.8-0.3
      c0.63,0,1.13,0.5,1.13,1.13s-0.5,1.13-1.13,1.13c-0.3,0-0.57-0.07-0.8-0.23L8,2z M6.5,1.3c0-0.4-0.33-0.75-0.75-0.75
      S5,0.9,5,1.3s0.33,0.75,0.75,0.75S6.5,1.7,6.5,1.3z" fill="url(#gradient)" filter="url(#shadow)" />
  </g>
  <circle class="sparkle" cx="13" cy="3" r="1" fill="#FF5A45" opacity="0.6" />
</svg>