<svg xmlns="http://www.w3.org/2000/svg" width="128" height="128" viewBox="0 0 128 128">
  <defs>
    <linearGradient id="gradient" x1="0%" y1="0%" x2="100%" y2="100%">
      <stop offset="0%" stop-color="#FF5A45" />
      <stop offset="100%" stop-color="#FF8A45" />
    </linearGradient>
    <filter id="shadow" x="-20%" y="-20%" width="140%" height="140%">
      <feGaussianBlur in="SourceAlpha" stdDeviation="4" />
      <feOffset dx="0" dy="3" result="offsetblur" />
      <feComponentTransfer>
        <feFuncA type="linear" slope="0.4" />
      </feComponentTransfer>
      <feMerge>
        <feMergeNode />
        <feMergeNode in="SourceGraphic" />
      </feMerge>
    </filter>
    <style>
      @keyframes float {
        0% { transform: translateY(0px); }
        50% { transform: translateY(-4px); }
        100% { transform: translateY(0px); }
      }
      @keyframes pulse {
        0% { transform: scale(1); opacity: 0.6; }
        50% { transform: scale(1.3); opacity: 0.9; }
        100% { transform: scale(1); opacity: 0.6; }
      }
      @keyframes twinkle {
        0% { opacity: 0.4; }
        50% { opacity: 0.8; }
        100% { opacity: 0.4; }
      }
      .key-icon { animation: float 4s ease-in-out infinite; }
      .sparkle-1 { animation: pulse 3s ease-in-out infinite; }
      .sparkle-2 { animation: twinkle 3.5s ease-in-out infinite; }
    </style>
  </defs>
  <rect width="128" height="128" fill="#FFFFFF" rx="32" ry="32" filter="url(#shadow)" />
  <g class="key-icon" transform="translate(24, 24)">
    <path d="M64,16c0,6.6-5.4,12-12,12c-2.4,0-4.5-0.6-6.3-1.8L22,50.4V64H10V52H-2V40h12.6l23.7-23.7C32.7,14.5,32,12.4,32,10
      c0-6.6,5.4-12,12-12s12,5.4,12,12c0,2.4-0.6,4.5-1.8,6.3l7.8,7.8c1.8-1.8,3.9-2.4,6.3-2.4c5.1,0,9,3.9,9,9s-3.9,9-9,9
      c-2.4,0-4.5-0.6-6.3-1.8L64,16z M52,10c0-3.3-2.7-6-6-6s-6,2.7-6,6s2.7,6,6,6S52,13.3,52,10z" fill="url(#gradient)" filter="url(#shadow)" />
  </g>
  <circle class="sparkle-1" cx="104" cy="24" r="8" fill="#FF5A45" opacity="0.6" />
  <circle class="sparkle-2" cx="24" cy="104" r="6" fill="#FF8A45" opacity="0.4" />
  <circle class="sparkle-1" cx="104" cy="104" r="5" fill="#FF7A45" opacity="0.5" />
</svg>